<?xml version="1.0" standalone="no"?>
<!DOCTYPE svg PUBLIC "-//W3C//DTD SVG 20010904//EN"
 "http://www.w3.org/TR/2001/REC-SVG-20010904/DTD/svg10.dtd">
<svg version="1.0" xmlns="http://www.w3.org/2000/svg"
 width="545.000000pt" height="517.000000pt" viewBox="0 0 545.000000 517.000000"
 preserveAspectRatio="xMidYMid meet">

<g transform="translate(0.000000,517.000000) scale(0.100000,-0.100000)"
fill="#000000" stroke="none">
<path d="M1150 2835 l0 -915 33 0 32 0 1 123 c1 138 18 219 66 309 86 163 265
250 450 219 136 -22 230 -94 459 -351 119 -133 191 -159 268 -94 78 65 33 167
-119 269 -122 81 -237 132 -465 206 -121 40 -260 91 -310 114 -247 116 -355
269 -355 505 0 101 16 165 61 251 45 86 154 194 244 242 l70 36 -217 1 -218 0
0 -915z"/>
<path d="M2110 3707 c41 -24 104 -61 140 -82 52 -31 77 -40 126 -43 99 -7 150
32 164 124 l7 44 -256 0 -256 0 75 -43z"/>
<path d="M2614 3627 c-1 -252 -83 -411 -252 -494 -75 -38 -77 -38 -196 -38
-112 0 -125 2 -177 28 -76 37 -172 127 -274 257 -139 177 -194 212 -277 174
-41 -19 -78 -64 -78 -97 0 -35 40 -95 97 -146 98 -88 255 -158 578 -261 416
-131 635 -337 635 -595 0 -209 -127 -407 -325 -509 l-50 -25 243 -1 242 0 0
113 c0 308 134 499 378 538 191 31 331 -44 540 -289 167 -195 238 -229 327
-151 62 55 46 119 -50 208 -114 103 -281 184 -582 280 -280 90 -429 170 -515
279 -121 151 -141 378 -49 560 58 115 136 192 264 263 l52 29 -265 0 -265 0
-1 -123z"/>
<path d="M3655 3719 c33 -17 78 -44 100 -59 82 -56 142 -80 200 -80 94 0 136
36 151 129 l7 41 -259 0 -259 0 60 -31z"/>
<path d="M4180 3637 c0 -254 -90 -428 -263 -508 -68 -32 -78 -33 -187 -34
-111 0 -118 1 -184 34 -81 39 -171 125 -266 251 -147 195 -225 231 -315 146
-45 -43 -47 -84 -6 -147 67 -106 229 -193 561 -302 248 -82 342 -122 453 -197
233 -156 315 -378 227 -613 -46 -124 -158 -250 -278 -315 l-57 -31 208 -1 207
0 0 915 0 915 -50 0 -50 0 0 -113z"/>
<path d="M1360 2073 c-39 -20 -65 -61 -75 -115 l-7 -38 263 0 264 0 -90 51
c-164 92 -206 111 -264 116 -41 3 -65 0 -91 -14z"/>
<path d="M2928 2074 c-41 -17 -78 -78 -78 -127 l0 -27 263 0 262 0 -118 64
c-204 111 -249 123 -329 90z"/>
<path d="M1746 1744 c-34 -34 -4 -94 47 -94 22 0 34 -27 19 -42 -9 -9 -16 -7
-30 5 -22 20 -52 22 -52 4 0 -44 84 -63 120 -27 35 35 23 65 -36 91 -24 10
-44 23 -44 29 0 16 30 24 43 11 16 -16 47 -14 47 4 0 33 -86 48 -114 19z"/>
<path d="M1900 1665 c0 -87 2 -95 19 -95 15 0 21 8 23 32 4 43 20 45 42 3 11
-21 27 -35 38 -35 22 0 22 3 2 41 -14 28 -14 32 0 48 23 25 20 67 -6 85 -13 9
-43 16 -70 16 l-48 0 0 -95z m98 33 c-2 -17 -11 -24 -30 -26 -24 -3 -28 0 -28
22 0 22 4 26 31 26 26 0 30 -3 27 -22z"/>
<path d="M2080 1665 c0 -88 1 -95 20 -95 19 0 20 7 20 95 0 88 -1 95 -20 95
-19 0 -20 -7 -20 -95z"/>
<path d="M2160 1665 c0 -95 0 -95 25 -95 22 0 25 4 25 34 0 49 13 51 39 6 16
-30 29 -40 47 -40 l24 0 -36 55 -35 56 32 37 c29 33 31 37 14 41 -12 2 -31
-10 -52 -33 l-33 -36 0 35 c0 31 -3 35 -25 35 -25 0 -25 0 -25 -95z"/>
<path d="M2381 1671 c-17 -49 -31 -92 -31 -96 0 -16 37 -2 45 18 6 13 21 23
37 25 22 3 30 -2 38 -22 6 -16 17 -26 30 -26 19 0 18 4 -14 93 -25 70 -38 93
-53 95 -17 3 -25 -11 -52 -87z m65 -18 c-2 -3 -11 -3 -19 -1 -11 2 -12 9 -5
28 l10 25 9 -24 c5 -13 7 -26 5 -28z"/>
<path d="M2550 1665 c0 -88 1 -95 20 -95 16 0 20 7 20 35 0 19 4 35 9 35 5 0
19 -16 31 -35 13 -21 30 -35 41 -35 19 0 19 1 3 32 -15 29 -15 34 0 59 35 59
4 99 -74 99 l-50 0 0 -95z m95 45 c9 -15 -14 -40 -36 -40 -14 0 -19 7 -19 25
0 20 5 25 24 25 14 0 28 -5 31 -10z"/>
<path d="M2817 1742 c-33 -37 -11 -71 56 -86 33 -8 44 -30 27 -51 -18 -21 -57
-19 -70 5 -12 23 -30 27 -30 6 0 -21 39 -46 71 -46 30 0 59 28 59 57 0 26 -15
39 -60 50 -28 7 -35 14 -35 34 0 19 6 25 28 27 18 2 29 -2 33 -12 6 -17 34
-22 34 -8 0 18 -38 42 -67 42 -16 0 -37 -8 -46 -18z"/>
<path d="M2980 1665 c0 -57 4 -95 10 -95 6 0 10 38 10 95 0 57 -4 95 -10 95
-6 0 -10 -38 -10 -95z"/>
<path d="M3067 1742 c-33 -37 -11 -71 56 -86 33 -8 44 -30 27 -51 -18 -21 -57
-19 -70 5 -12 23 -30 27 -30 6 0 -21 39 -46 71 -46 30 0 59 28 59 57 0 26 -15
39 -60 50 -28 7 -35 14 -35 34 0 19 6 25 28 27 18 2 29 -2 33 -12 6 -17 34
-22 34 -8 0 18 -38 42 -67 42 -16 0 -37 -8 -46 -18z"/>
<path d="M3220 1750 c0 -5 11 -10 25 -10 25 0 25 -1 25 -85 0 -69 3 -85 15
-85 12 0 15 16 15 85 0 84 0 85 25 85 14 0 25 5 25 10 0 6 -28 10 -65 10 -37
0 -65 -4 -65 -10z"/>
<path d="M3400 1665 l0 -95 55 0 c30 0 55 5 55 10 0 6 -20 10 -45 10 l-45 0 0
85 c0 50 -4 85 -10 85 -6 0 -10 -38 -10 -95z"/>
<path d="M3602 1733 c-5 -16 -21 -58 -35 -95 -26 -69 -21 -94 8 -38 13 25 22
30 51 30 30 0 37 -4 45 -30 10 -26 29 -42 29 -24 0 23 -67 184 -77 184 -6 0
-15 -12 -21 -27z m47 -80 c1 -8 -11 -13 -29 -13 -35 0 -35 -2 -13 52 l17 42
12 -35 c7 -19 13 -40 13 -46z"/>
</g>
</svg>
