<svg xmlns="http://www.w3.org/2000/svg" height="70.188" viewBox="0 0 250 70.187607" width="250"><g transform="matrix(1.25 0 0 -1.25 -258.01 530.56)"><path d="m75.23 0.82617c-0.522 0-0.783 0.60963-0.957 1.5664l-6.261 56.707c-0.348 3.304-0.611 6.696-3.481 7.218-1.305 0.261-1.913 0.26-2.609 0.26-0.435 0-0.869 0.175-0.869 0.436 0 0.609 0.608 0.783 1.478 0.783 2.348 0 6.524-0.262 7.307-0.262 0.695 0 4.87 0.262 8.088 0.262 1.044 0 1.564-0.174 1.564-0.783 0-0.261-0.347-0.436-0.695-0.436-0.522 0-1.826-0.085-3.305-0.433-1.304-0.262-2.261-1.393-2.261-2.698 0-1.478 0.001-3.043 0.087-4.435l3.479-40.356h0.348c0.957 2.349 10.697 23.222 11.48 24.787 0.435 0.87 7.915 15.917 10.176 20.178 1.651 3.131 2.091 4.002 2.701 4.002 0.78 0 1.04-0.784 2.87-4.611l21.3-45.225h0.27l4.17 44.877c0.17 1.565 0.09 3.044-0.35 3.131-0.43 0.087-0.61 0.262-0.61 0.609 0 0.436 0.44 0.695 2.44 0.869 3.22 0.261 12.61 0.524 14.52 0.524 0.05 0 0.1-0.005 0.15-0.006 0.06 0.001 0.12 0.006 0.19 0.006 2.6 0 8.08-0.262 8.52-0.262 0.69 0 9.57 0.522 11.57 0.522 14.87 0 22.17-9.656 22.17-18.961 0-10.176-8.61-16.349-15.04-18.35 4.09-4.261 8.17-8.524 8.17-15.656 0-4.349-3.13-13.047-17.39-13.047-4 0-7.39 0.2617-9.48 0.2617-0.44 0-5.92-0.2617-9.83-0.2617-0.96 0-1.39 0.1757-1.39 0.6972 0 0.3485 0.35 0.5215 0.69 0.5215 0.79 0 2.27 0.0877 2.96 0.2617 2.87 0.6088 3.57 1.9999 3.74 4.9571 0.17 2.7835 0.17 5.2175 0.17 18.786v15.308c0 8.349 0.01 15.22-0.43 18.873-0.35 2.523-0.78 4.436-2.52 4.783-0.66 0.146-1.49 0.285-2.2 0.329-1.12-0.047-2.78-0.208-4.57-0.764-3.74-1.218-4.35-6.088-4.7-9.219l-5.82-53.402c-0.18-1.653-0.44-2.3478-1.05-2.3478-0.6-0.00003-0.95 0.6098-1.3 1.3926l-25.57 54.619-26.617-54.707c-0.435-0.9565-0.781-1.3048-1.303-1.3048zm150.86 0c-13.39 0-21.3 4.0884-26.52 9.3068-7.74 7.74-9.74 17.916-9.74 23.744 0 8.262 2.08 18.176 10.52 25.742 6.87 6.176 15.65 9.395 28.7 9.395 5.57 0 12.18-0.609 15.66-2 1.56-0.696 1.74-0.871 2.26-2.524 0.87-2.957 1.91-10.523 1.91-11.133 0-0.695-0.17-1.302-0.61-1.302-0.52 0-0.69 0.347-0.87 1.302-0.26 1.566-1.39 5.393-3.22 7.307-3.48 3.565-8.61 4.35-15.13 4.35-18.61 0-31.4-15.22-31.4-31.832 0-8.872 1.48-16.614 7.83-22.702 3.04-2.9567 8.44-6.3491 20-6.3491 7.66 0 14.36 2.3498 17.4 4.9589 2.26 1.9132 3.65 5.4792 3.65 8.8712 0 1.218 0.09 1.826 0.7 1.826 0.52 0 0.69-0.521 0.78-1.826s0.09-6.089 0.26-8.959c0.18-3.1312 0.44-4.1756 0.44-4.8711 0-0.522-0.18-0.8699-1.13-0.9571-2.79-0.174-5.57-0.6939-8.87-1.3027-4.27-0.7832-9.14-1.0449-12.62-1.0449zm-223.82 1.2168c-0.9564 0-1.3906 0.1757-1.3906 0.6972-0.00004 0.3485 0.3477 0.5215 0.6953 0.5215 0.7832 0 2.2614 0.0877 2.957 0.2617 2.8704 0.6088 3.5667 1.9999 3.7402 4.9571 0.1745 2.7835 0.1739 5.2175 0.1739 18.786v12.699c0 12.697 3.3047 18.787 7.5667 22.875 6.175 5.827 14.959 6.174 17.916 6.174 5.131 0 11.656-0.871 17.918-6.436 6.958-6.175 8-16.613 8-26.006v-9.306c0-13.568 0-16.002 0.173-18.786 0.175-3.0439 0.871-4.5213 3.219-4.9566 1.044-0.2607 1.565-0.2617 2.174-0.2617 0.348 0 0.697-0.173 0.697-0.5215 0-0.5215-0.435-0.6972-1.392-0.6972-2.61 0-6.696 0.2617-7.305 0.2617-0.521 0-5.307-0.2617-9.221-0.2617-0.956 0-1.39 0.1757-1.39 0.6972 0 0.3485 0.347 0.5215 0.695 0.5215 0.783 0 2.261 0.0877 2.957 0.2617 2.87 0.6088 3.566 1.9999 3.74 4.9571 0.174 2.7835 0.174 5.2175 0.174 18.786v10.873c0 8.959-1.044 16.349-5.045 21.306-3.131 3.741-8.349 6.264-13.654 6.264-4.958 0-8.871-0.782-13.133-4.783-3.74-3.566-6.523-8.958-6.523-21.483v-12.177c0-13.568 0-16.002 0.174-18.786 0.174-3.0439 0.87-4.609 3.218-4.9566 1.044-0.174 1.565-0.2617 2.174-0.2617 0.348 0 0.695-0.173 0.695-0.5215 0-0.5215-0.433-0.6972-1.39-0.6972-2.609 0-7.828 0.2617-8.612 0.2617-0.782 0-6.0876-0.2617-10.002-0.2617zm161.22 2.4355c8.53 0 11.74 7.7415 11.74 14.96 0 3.567-1.3 6.697-3.13 8.785-1.82 2.087-3.04 2.261-7.91 2.261-3.22 0-4.79-0.26-5.31-0.347-0.43-0.174-0.61-0.349-0.61-0.957v-23.309c0-0.5219 0.26-0.783 1.05-0.9569 1.39-0.3481 3.22-0.4356 4.17-0.4356zm-4.7 28.354c1.31 0 5.66 0 6.79 0.174 2.09 0.261 4.26 0.523 7.22 2.523 6.7 4.609 8.43 12.177 8.43 17.395 0 9.828-7.56 12.349-12.26 12.349-1.56 0-5.3-0.174-7.65-1.304-2.7-1.305-2.7-2.522-2.96-6.783-0.09-1.305-0.09-12.091-0.09-18.788v-4.957c0-0.435 0.18-0.609 0.52-0.609z" transform="matrix(.8 0 0 -.8 206.41 424.45)" fill="#ed1c24"/></g></svg>
